<svg width="32" height="47" viewBox="0 0 32 47" fill="none" xmlns="http://www.w3.org/2000/svg">
<path d="M5.14844 31.625H6.58594V39.6797C6.58594 40.2422 6.51042 40.7422 6.35938 41.1797C6.20833 41.612 5.9974 41.974 5.72656 42.2656C5.45573 42.5573 5.13021 42.7786 4.75 42.9297C4.375 43.0807 3.96354 43.1562 3.51562 43.1562C3.07292 43.1562 2.66406 43.0911 2.28906 42.9609C1.91927 42.8255 1.59896 42.6224 1.32812 42.3516C1.05729 42.0755 0.84375 41.7318 0.6875 41.3203C0.536458 40.9036 0.460938 40.4167 0.460938 39.8594H1.89062C1.89062 40.2188 1.93229 40.5286 2.01562 40.7891C2.09896 41.0495 2.21354 41.2656 2.35938 41.4375C2.50521 41.6042 2.67708 41.7292 2.875 41.8125C3.07292 41.8906 3.28646 41.9297 3.51562 41.9297C3.75 41.9297 3.96615 41.8828 4.16406 41.7891C4.36719 41.6901 4.54167 41.5469 4.6875 41.3594C4.83333 41.1719 4.94531 40.9375 5.02344 40.6562C5.10677 40.375 5.14844 40.0495 5.14844 39.6797V31.625ZM15.7422 31.625V39.6406C15.7422 40.2812 15.6458 40.8255 15.4531 41.2734C15.2604 41.7161 15.0026 42.0781 14.6797 42.3594C14.3568 42.6406 13.9844 42.8438 13.5625 42.9688C13.1406 43.0938 12.6979 43.1562 12.2344 43.1562C11.7448 43.1562 11.2865 43.0938 10.8594 42.9688C10.4375 42.8438 10.0703 42.6406 9.75781 42.3594C9.44531 42.0781 9.19792 41.7161 9.01562 41.2734C8.83854 40.8255 8.75 40.2812 8.75 39.6406V31.625H10.1719V39.6406C10.1719 40.0833 10.2214 40.4531 10.3203 40.75C10.4193 41.0417 10.5573 41.276 10.7344 41.4531C10.9167 41.6302 11.1328 41.7552 11.3828 41.8281C11.638 41.901 11.9219 41.9375 12.2344 41.9375C12.5469 41.9375 12.8307 41.901 13.0859 41.8281C13.3411 41.7552 13.5573 41.6302 13.7344 41.4531C13.9167 41.276 14.0573 41.0417 14.1562 40.75C14.2552 40.4531 14.3047 40.0833 14.3047 39.6406V31.625H15.7422ZM19.3828 41.7734H23.8438V43H17.9453V31.625H19.3828V41.7734ZM26.6406 37.3359L28.9688 31.625H30.5859L27.3516 38.7578V43H25.9219V38.7578L22.6875 31.625H24.3125L26.6406 37.3359Z" fill="#161722"/>
<path d="M18.168 22H8.11328V19.6562L12.7305 13.7852C13.0586 13.332 13.332 12.9219 13.5508 12.5547C13.7695 12.1797 13.9453 11.8359 14.0781 11.5234C14.2109 11.2109 14.3047 10.9219 14.3594 10.6562C14.4141 10.3906 14.4414 10.1328 14.4414 9.88281C14.4414 9.125 14.3086 8.53125 14.043 8.10156C13.7852 7.67187 13.4102 7.45703 12.918 7.45703C12.6211 7.45703 12.3633 7.53125 12.1445 7.67969C11.9258 7.82031 11.7422 8.01953 11.5938 8.27734C11.4453 8.52734 11.3359 8.82812 11.2656 9.17969C11.1953 9.53125 11.1602 9.91016 11.1602 10.3164H7.83203C7.83203 9.54297 7.94922 8.81641 8.18359 8.13672C8.42578 7.45703 8.76562 6.86328 9.20312 6.35547C9.64844 5.84766 10.1875 5.44531 10.8203 5.14844C11.4609 4.85156 12.1797 4.70312 12.9766 4.70312C13.7578 4.70312 14.4453 4.81641 15.0391 5.04297C15.6406 5.26172 16.1445 5.57813 16.5508 5.99219C16.957 6.40625 17.2617 6.91406 17.4648 7.51562C17.6758 8.11719 17.7812 8.79297 17.7812 9.54297C17.7812 10.1133 17.707 10.668 17.5586 11.207C17.4102 11.7383 17.1953 12.2695 16.9141 12.8008C16.6406 13.332 16.3047 13.8711 15.9062 14.418C15.5078 14.957 15.0586 15.5234 14.5586 16.1172L12.3672 19.2461H18.168V22ZM29.928 14.9453C29.928 16.2266 29.8069 17.3281 29.5647 18.25C29.3225 19.1641 28.9827 19.918 28.5452 20.5117C28.1077 21.0977 27.5842 21.5312 26.9748 21.8125C26.3733 22.0938 25.7092 22.2344 24.9827 22.2344C24.2561 22.2344 23.5881 22.0938 22.9788 21.8125C22.3694 21.5312 21.8459 21.0977 21.4084 20.5117C20.9709 19.918 20.6272 19.1641 20.3772 18.25C20.135 17.3281 20.0139 16.2266 20.0139 14.9453V11.9688C20.0139 10.6953 20.135 9.60156 20.3772 8.6875C20.6194 7.76562 20.9592 7.01172 21.3967 6.42578C21.8342 5.83203 22.3538 5.39844 22.9553 5.125C23.5647 4.84375 24.2327 4.70312 24.9592 4.70312C25.6858 4.70312 26.3538 4.84375 26.9631 5.125C27.5725 5.39844 28.0959 5.83203 28.5334 6.42578C28.9709 7.01172 29.3108 7.76562 29.553 8.6875C29.803 9.60156 29.928 10.6953 29.928 11.9688V14.9453ZM26.5998 11.4883C26.5998 10.7383 26.5608 10.1094 26.4827 9.60156C26.4045 9.08594 26.2952 8.67188 26.1545 8.35938C26.0139 8.03906 25.842 7.80859 25.6389 7.66797C25.4358 7.52734 25.2092 7.45703 24.9592 7.45703C24.7092 7.45703 24.4827 7.52734 24.2795 7.66797C24.0764 7.80859 23.9045 8.03906 23.7639 8.35938C23.6233 8.67188 23.5139 9.08594 23.4358 9.60156C23.3577 10.1094 23.3186 10.7383 23.3186 11.4883V15.4023C23.3186 16.1602 23.3577 16.8008 23.4358 17.3242C23.5139 17.8398 23.6233 18.2578 23.7639 18.5781C23.9123 18.8984 24.0881 19.1289 24.2913 19.2695C24.4944 19.4102 24.7248 19.4805 24.9827 19.4805C25.2327 19.4805 25.4553 19.4102 25.6506 19.2695C25.8538 19.1289 26.0256 18.8984 26.1663 18.5781C26.3069 18.2578 26.4123 17.8398 26.4827 17.3242C26.5608 16.8008 26.5998 16.1602 26.5998 15.4023V11.4883Z" fill="#161722"/>
</svg>
